<?xml version="1.0" standalone="no"?>
<!DOCTYPE svg PUBLIC "-//W3C//DTD SVG 20010904//EN"
 "http://www.w3.org/TR/2001/REC-SVG-20010904/DTD/svg10.dtd">
<svg version="1.0" xmlns="http://www.w3.org/2000/svg"
 width="200px" height="200px" viewBox="0 0 512 512"
 preserveAspectRatio="xMidYMid meet">

<g transform="translate(0.000000,500.000000) scale(0.100000,-0.100000)"
fill="#000000" stroke="none">
<path d="M2440 3482 c-19 -11 -43 -36 -54 -57 -19 -38 -18 -66 9 -127 6 -15 2
-18 -18 -18 -89 0 -287 -98 -381 -188 -99 -97 -189 -255 -211 -374 l-7 -38
-65 0 c-55 0 -67 -4 -88 -25 -32 -31 -32 -69 0 -100 l24 -25 844 0 c839 0 844
0 871 21 33 26 36 79 6 109 -16 16 -33 20 -85 20 -62 0 -65 1 -70 28 -25 116
-93 249 -178 346 -87 101 -267 203 -390 221 -40 6 -47 10 -41 24 4 9 9 39 12
66 4 59 -20 98 -74 121 -44 18 -63 18 -104 -4z m183 -327 c116 -24 212 -77
297 -164 69 -70 134 -169 155 -238 l6 -23 -295 0 -296 0 0 220 0 220 33 0 c17
0 63 -7 100 -15z"/>
<path d="M1979 2499 c-32 -32 -20 -84 46 -202 139 -247 264 -402 398 -490 53
-35 127 -66 200 -81 22 -5 27 -11 22 -26 -10 -32 28 -60 83 -60 102 0 206 45
294 128 68 63 75 131 15 146 -24 6 -24 6 -11 63 7 32 18 116 24 187 12 151 21
191 55 237 57 79 58 104 1 115 -27 5 -47 0 -83 -17 -41 -20 -59 -40 -119 -132
-80 -122 -120 -167 -146 -167 -13 0 -34 33 -77 123 -63 132 -101 183 -142 192
-68 16 -76 -61 -25 -246 19 -68 33 -125 32 -127 -2 -1 -17 30 -35 70 -101 230
-212 351 -263 288 -25 -31 -23 -60 16 -175 19 -55 33 -101 32 -103 -2 -1 -23
28 -48 65 -64 97 -140 183 -185 210 -47 28 -57 29 -84 2z"/>
</g>
</svg>
